<svg width="1884" height="904" viewBox="0 0 1884 904" fill="none" xmlns="http://www.w3.org/2000/svg">
<path d="M619.434 312.486L623.669 308.236L619.524 304.105L615.291 308.146L619.434 312.486ZM832.95 525.265L828.715 529.515L832.811 533.598L837.042 529.654L832.95 525.265ZM1210.83 172.958L1214.63 168.316L1210.57 164.994L1206.74 168.57L1210.83 172.958ZM1440.22 360.822L1436.41 365.464L1440.16 368.531L1443.95 365.52L1440.22 360.822ZM1883.96 13.6826C1884.34 10.3904 1881.97 7.41596 1878.68 7.03896L1825.03 0.895413C1821.74 0.518414 1818.77 2.88165 1818.39 6.17384C1818.01 9.46603 1820.38 12.4405 1823.67 12.8175L1871.36 18.2784L1865.9 65.9668C1865.52 69.259 1867.88 72.2334 1871.17 72.6104C1874.47 72.9874 1877.44 70.6242 1877.82 67.332L1883.96 13.6826ZM9.14289 903.34L623.577 316.826L615.291 308.146L0.857113 894.66L9.14289 903.34ZM615.199 316.736L828.715 529.515L837.185 521.015L623.669 308.236L615.199 316.736ZM837.042 529.654L1214.92 177.347L1206.74 168.57L828.858 520.877L837.042 529.654ZM1207.03 177.6L1436.41 365.464L1444.02 356.18L1214.63 168.316L1207.03 177.6ZM1443.95 365.52L1881.73 17.6978L1874.27 8.30222L1436.48 356.124L1443.95 365.52Z" fill="#1B1A1A"/>
</svg>
